<mxfile host="app.diagrams.net" agent="Mozilla/5.0 (Windows NT 10.0; Win64; x64) AppleWebKit/537.36 (KHTML, like Gecko) Chrome/141.0.0.0 Safari/537.36" version="28.2.7">
  <diagram name="Page-1" id="ttaSN7CeZxhin2anubeR">
    <mxGraphModel dx="983" dy="536" grid="1" gridSize="10" guides="1" tooltips="1" connect="1" arrows="1" fold="1" page="1" pageScale="1" pageWidth="850" pageHeight="1100" math="0" shadow="0">
      <root>
        <mxCell id="0" />
        <mxCell id="1" parent="0" />
        <mxCell id="pfOP6WvD-VPl3fYQwub2-2" value="&lt;b&gt;&lt;font style=&quot;font-size: 14px;&quot;&gt;Front Range Community College&lt;/font&gt;&lt;/b&gt;&lt;div&gt;Fall 2026 Student Payment Process&lt;/div&gt;&lt;div&gt;&lt;b&gt;Pay your balance, enroll next semester, and maintain your good credit!&lt;/b&gt;&lt;/div&gt;" style="text;html=1;whiteSpace=wrap;strokeColor=none;fillColor=none;align=center;verticalAlign=middle;rounded=0;" parent="1" vertex="1">
          <mxGeometry x="205" y="280" width="440" height="30" as="geometry" />
        </mxCell>
        <mxCell id="pfOP6WvD-VPl3fYQwub2-15" style="edgeStyle=orthogonalEdgeStyle;rounded=0;orthogonalLoop=1;jettySize=auto;html=1;entryX=0;entryY=0.5;entryDx=0;entryDy=0;fillColor=#1ba1e2;strokeColor=#006EAF;strokeWidth=0;shape=flexArrow;sourcePerimeterSpacing=0;targetPerimeterSpacing=1;startArrow=none;startFill=0;endArrow=block;endFill=0;endSize=5;startSize=5;width=5;" parent="1" source="pfOP6WvD-VPl3fYQwub2-3" target="pfOP6WvD-VPl3fYQwub2-4" edge="1">
          <mxGeometry relative="1" as="geometry" />
        </mxCell>
        <mxCell id="pfOP6WvD-VPl3fYQwub2-3" value="November 3, 2025&lt;div&gt;All student registration opens&lt;/div&gt;" style="rounded=0;whiteSpace=wrap;html=1;" parent="1" vertex="1">
          <mxGeometry x="122" y="350" width="180" height="80" as="geometry" />
        </mxCell>
        <mxCell id="pfOP6WvD-VPl3fYQwub2-17" style="edgeStyle=orthogonalEdgeStyle;shape=flexArrow;rounded=0;orthogonalLoop=1;jettySize=auto;html=1;entryX=0;entryY=0.5;entryDx=0;entryDy=0;strokeColor=#006EAF;strokeWidth=0;align=center;verticalAlign=middle;fontFamily=Helvetica;fontSize=11;fontColor=default;labelBackgroundColor=default;startArrow=none;startFill=0;startSize=5;endArrow=block;endFill=0;endSize=5;sourcePerimeterSpacing=0;targetPerimeterSpacing=1;fillColor=#1ba1e2;width=5;" parent="1" source="pfOP6WvD-VPl3fYQwub2-4" target="pfOP6WvD-VPl3fYQwub2-5" edge="1">
          <mxGeometry relative="1" as="geometry" />
        </mxCell>
        <mxCell id="pfOP6WvD-VPl3fYQwub2-4" value="January 20, 2026&lt;div&gt;15 week classes begin&lt;/div&gt;" style="rounded=0;whiteSpace=wrap;html=1;" parent="1" vertex="1">
          <mxGeometry x="335" y="350" width="180" height="80" as="geometry" />
        </mxCell>
        <mxCell id="031L6QXwiXrA_j9798F7-1" style="edgeStyle=orthogonalEdgeStyle;shape=flexArrow;rounded=0;orthogonalLoop=1;jettySize=auto;html=1;entryX=0.5;entryY=0;entryDx=0;entryDy=0;strokeColor=#006EAF;strokeWidth=0;align=center;verticalAlign=middle;fontFamily=Helvetica;fontSize=11;fontColor=default;labelBackgroundColor=default;startArrow=none;startFill=0;startSize=1;endArrow=block;endFill=0;endSize=5;sourcePerimeterSpacing=0;targetPerimeterSpacing=1;fillColor=#1ba1e2;width=5;" edge="1" parent="1" source="pfOP6WvD-VPl3fYQwub2-5" target="pfOP6WvD-VPl3fYQwub2-6">
          <mxGeometry relative="1" as="geometry">
            <Array as="points">
              <mxPoint x="638" y="450" />
              <mxPoint x="212" y="450" />
            </Array>
          </mxGeometry>
        </mxCell>
        <mxCell id="pfOP6WvD-VPl3fYQwub2-5" value="February 4, 2026&lt;div&gt;Last day to drop 15 week classes w/ refund&lt;/div&gt;" style="rounded=0;whiteSpace=wrap;html=1;" parent="1" vertex="1">
          <mxGeometry x="548" y="350" width="180" height="80" as="geometry" />
        </mxCell>
        <mxCell id="pfOP6WvD-VPl3fYQwub2-19" style="edgeStyle=orthogonalEdgeStyle;shape=flexArrow;rounded=0;orthogonalLoop=1;jettySize=auto;html=1;entryX=0;entryY=0.5;entryDx=0;entryDy=0;strokeColor=#006EAF;strokeWidth=0;align=center;verticalAlign=middle;fontFamily=Helvetica;fontSize=11;fontColor=default;labelBackgroundColor=default;startArrow=none;startFill=0;startSize=5;endArrow=block;endFill=0;endSize=5;sourcePerimeterSpacing=0;targetPerimeterSpacing=1;fillColor=#1ba1e2;width=5;" parent="1" source="pfOP6WvD-VPl3fYQwub2-6" target="pfOP6WvD-VPl3fYQwub2-7" edge="1">
          <mxGeometry relative="1" as="geometry" />
        </mxCell>
        <mxCell id="pfOP6WvD-VPl3fYQwub2-6" value="MONTH DAY, 2026&lt;div&gt;FA pays into accounts&lt;/div&gt;" style="rounded=0;whiteSpace=wrap;html=1;" parent="1" vertex="1">
          <mxGeometry x="122" y="481" width="180" height="80" as="geometry" />
        </mxCell>
        <mxCell id="pfOP6WvD-VPl3fYQwub2-20" style="edgeStyle=orthogonalEdgeStyle;shape=flexArrow;rounded=0;orthogonalLoop=1;jettySize=auto;html=1;entryX=0;entryY=0.5;entryDx=0;entryDy=0;strokeColor=#006EAF;strokeWidth=0;align=center;verticalAlign=middle;fontFamily=Helvetica;fontSize=11;fontColor=default;labelBackgroundColor=default;startArrow=none;startFill=0;startSize=5;endArrow=block;endFill=0;endSize=5;sourcePerimeterSpacing=0;targetPerimeterSpacing=1;fillColor=#1ba1e2;width=5;" parent="1" source="pfOP6WvD-VPl3fYQwub2-7" target="pfOP6WvD-VPl3fYQwub2-8" edge="1">
          <mxGeometry relative="1" as="geometry" />
        </mxCell>
        <mxCell id="pfOP6WvD-VPl3fYQwub2-7" value="February 26, 2026&lt;div&gt;Payment deadline&lt;/div&gt;" style="rounded=0;whiteSpace=wrap;html=1;" parent="1" vertex="1">
          <mxGeometry x="335" y="481" width="180" height="80" as="geometry" />
        </mxCell>
        <mxCell id="pfOP6WvD-VPl3fYQwub2-8" value="&lt;div&gt;May 11, 2026&lt;/div&gt;&lt;div&gt;Last day of classes&lt;/div&gt;" style="rounded=0;whiteSpace=wrap;html=1;" parent="1" vertex="1">
          <mxGeometry x="548" y="481" width="180" height="80" as="geometry" />
        </mxCell>
        <mxCell id="pfOP6WvD-VPl3fYQwub2-9" value="1" style="ellipse;whiteSpace=wrap;html=1;aspect=fixed;fillColor=#1ba1e2;strokeColor=#006EAF;fontColor=#ffffff;fontStyle=1" parent="1" vertex="1">
          <mxGeometry x="107" y="340" width="30" height="30" as="geometry" />
        </mxCell>
        <mxCell id="pfOP6WvD-VPl3fYQwub2-10" value="2" style="ellipse;whiteSpace=wrap;html=1;aspect=fixed;fillColor=#1ba1e2;fontColor=#ffffff;strokeColor=#006EAF;fontStyle=1" parent="1" vertex="1">
          <mxGeometry x="320" y="340" width="30" height="30" as="geometry" />
        </mxCell>
        <mxCell id="pfOP6WvD-VPl3fYQwub2-11" value="3&lt;span style=&quot;color: rgba(0, 0, 0, 0); font-family: monospace; font-size: 0px; text-align: start; text-wrap-mode: nowrap;&quot;&gt;%3CmxGraphModel%3E%3Croot%3E%3CmxCell%20id%3D%220%22%2F%3E%3CmxCell%20id%3D%221%22%20parent%3D%220%22%2F%3E%3CmxCell%20id%3D%222%22%20value%3D%222%22%20style%3D%22ellipse%3BwhiteSpace%3Dwrap%3Bhtml%3D1%3Baspect%3Dfixed%3B%22%20vertex%3D%221%22%20parent%3D%221%22%3E%3CmxGeometry%20x%3D%22320%22%20y%3D%22340%22%20width%3D%2230%22%20height%3D%2230%22%20as%3D%22geometry%22%2F%3E%3C%2FmxCell%3E%3C%2Froot%3E%3C%2FmxGraphModel%3E&lt;/span&gt;" style="ellipse;whiteSpace=wrap;html=1;aspect=fixed;fillColor=#1ba1e2;fontColor=#ffffff;strokeColor=#006EAF;fontStyle=1" parent="1" vertex="1">
          <mxGeometry x="533" y="340" width="30" height="30" as="geometry" />
        </mxCell>
        <mxCell id="pfOP6WvD-VPl3fYQwub2-12" value="4" style="ellipse;whiteSpace=wrap;html=1;aspect=fixed;fillColor=#1ba1e2;fontColor=#ffffff;strokeColor=#006EAF;fontStyle=1" parent="1" vertex="1">
          <mxGeometry x="107" y="460" width="30" height="30" as="geometry" />
        </mxCell>
        <mxCell id="pfOP6WvD-VPl3fYQwub2-13" value="5" style="ellipse;whiteSpace=wrap;html=1;aspect=fixed;fillColor=#1ba1e2;fontColor=#ffffff;strokeColor=#006EAF;fontStyle=1" parent="1" vertex="1">
          <mxGeometry x="320" y="460" width="30" height="30" as="geometry" />
        </mxCell>
        <mxCell id="pfOP6WvD-VPl3fYQwub2-14" value="6" style="ellipse;whiteSpace=wrap;html=1;aspect=fixed;fillColor=#1ba1e2;fontColor=#ffffff;strokeColor=#006EAF;fontStyle=1" parent="1" vertex="1">
          <mxGeometry x="533" y="460" width="30" height="30" as="geometry" />
        </mxCell>
      </root>
    </mxGraphModel>
  </diagram>
</mxfile>
